<svg width="16" height="16" viewBox="0 0 16 16" fill="none" xmlns="http://www.w3.org/2000/svg">
  <path d="M8 1C4.14 1 1 4.14 1 8C1 11.86 4.14 15 8 15C11.86 15 15 11.86 15 8C15 4.14 11.86 1 8 1ZM8 13.5C4.97 13.5 2.5 11.03 2.5 8C2.5 4.97 4.97 2.5 8 2.5C11.03 2.5 13.5 4.97 13.5 8C13.5 11.03 11.03 13.5 8 13.5Z" fill="#C5C5C5"/>
  <path d="M8 4C7.45 4 7 4.45 7 5C7 5.55 7.45 6 8 6C8.55 6 9 5.55 9 5C9 4.45 8.55 4 8 4Z" fill="#C5C5C5"/>
  <path d="M8 7C7.56 7 7.25 7.23 7.13 7.55C7.05 7.77 6.8 7.88 6.58 7.79C6.36 7.71 6.25 7.47 6.33 7.25C6.6 6.61 7.3 6 8 6C8.96 6 9.75 6.79 9.75 7.75C9.75 8.41 9.41 8.97 8.92 9.3L8.66 9.47C8.59 9.52 8.54 9.59 8.52 9.68L8.25 11.21C8.22 11.43 8.01 11.59 7.79 11.55C7.57 11.53 7.41 11.32 7.44 11.1L7.7 9.65C7.72 9.47 7.82 9.31 7.96 9.21L8.21 9.05C8.55 8.82 8.75 8.32 8.75 7.75C8.75 7.34 8.41 7 8 7Z" fill="#C5C5C5"/>
  <path d="M8 12C7.45 12 7 12.45 7 13C7 13.55 7.45 14 8 14C8.55 14 9 13.55 9 13C9 12.45 8.55 12 8 12Z" fill="#C5C5C5"/>
</svg> 