<svg width="16" height="16" viewBox="0 0 16 16" fill="none" xmlns="http://www.w3.org/2000/svg">
  <path d="M2 2C2 1.45 2.45 1 3 1C3.55 1 4 1.45 4 2C4 2.55 3.55 3 3 3C2.45 3 2 2.55 2 2Z" fill="#C5C5C5"/>
  <path d="M5 4C5 3.45 5.45 3 6 3C6.55 3 7 3.45 7 4C7 4.55 6.55 5 6 5C5.45 5 5 4.55 5 4Z" fill="#C5C5C5"/>
  <path d="M9 4C9 3.45 9.45 3 10 3C10.55 3 11 3.45 11 4C11 4.55 10.55 5 10 5C9.45 5 9 4.55 9 4Z" fill="#C5C5C5"/>
  <path d="M12 8C12 7.45 12.45 7 13 7C13.55 7 14 7.45 14 8C14 8.55 13.55 9 13 9C12.45 9 12 8.55 12 8Z" fill="#C5C5C5"/>
  <path d="M9 12C9 11.45 9.45 11 10 11C10.55 11 11 11.45 11 12C11 12.55 10.55 13 10 13C9.45 13 9 12.55 9 12Z" fill="#C5C5C5"/>
  <path d="M5 12C5 11.45 5.45 11 6 11C6.55 11 7 11.45 7 12C7 12.55 6.55 13 6 13C5.45 13 5 12.55 5 12Z" fill="#C5C5C5"/>
  <path d="M2 8C2 7.45 2.45 7 3 7C3.55 7 4 7.45 4 8C4 8.55 3.55 9 3 9C2.45 9 2 8.55 2 8Z" fill="#C5C5C5"/>
  <path d="M13 7L10 5" stroke="#C5C5C5" stroke-width="1.5" stroke-linecap="round"/>
  <path d="M10 5L6 5" stroke="#C5C5C5" stroke-width="1.5" stroke-linecap="round"/>
  <path d="M6 5L3 3" stroke="#C5C5C5" stroke-width="1.5" stroke-linecap="round"/>
  <path d="M3 9L6 11" stroke="#C5C5C5" stroke-width="1.5" stroke-linecap="round"/>
  <path d="M6 11L10 11" stroke="#C5C5C5" stroke-width="1.5" stroke-linecap="round"/>
  <path d="M10 11L13 9" stroke="#C5C5C5" stroke-width="1.5" stroke-linecap="round"/>
</svg> 