<svg xmlns="http://www.w3.org/2000/svg" viewBox="0 0 200 200" width="200" height="200">
    <!-- Detective Whiskers - The investigative cat -->
    <circle cx="100" cy="100" r="80" fill="#5E4B3F" />
    <!-- Face -->
    <circle cx="75" cy="90" r="10" fill="#FFF" />
    <circle cx="125" cy="90" r="10" fill="#FFF" />
    <circle cx="75" cy="90" r="5" fill="#000" />
    <circle cx="125" cy="90" r="5" fill="#000" />
    <!-- Whiskers -->
    <line x1="40" y1="110" x2="70" y2="105" stroke="#000" stroke-width="1" />
    <line x1="40" y1="120" x2="70" y2="115" stroke="#000" stroke-width="1" />
    <line x1="160" y1="110" x2="130" y2="105" stroke="#000" stroke-width="1" />
    <line x1="160" y1="120" x2="130" y2="115" stroke="#000" stroke-width="1" />
    <!-- Curious Expression -->
    <path d="M90,115 Q100,125 110,115" fill="none" stroke="#000" stroke-width="2" />
    <line x1="85" y1="75" x2="95" y2="80" stroke="#000" stroke-width="2" />
    <line x1="115" y1="75" x2="105" y2="80" stroke="#000" stroke-width="2" />
    <!-- Ears -->
    <polygon points="60,40 45,20 75,30" fill="#5E4B3F" stroke="#000" />
    <polygon points="140,40 155,20 125,30" fill="#5E4B3F" stroke="#000" />
    <!-- Detective Hat -->
    <path d="M50,50 C65,30 135,30 150,50 L150,60 C135,50 65,50 50,60 Z" fill="#333" />
    <ellipse cx="100" cy="60" rx="50" ry="10" fill="#333" />
    <!-- Magnifying Glass -->
    <circle cx="60" cy="140" r="15" fill="none" stroke="#000" stroke-width="3" />
    <line x1="70" y1="150" x2="85" y2="165" stroke="#000" stroke-width="3" />
</svg> 