<svg xmlns="http://www.w3.org/2000/svg" viewBox="0 0 200 200" width="200" height="200">
    <!-- WhiskerCode Logo -->
    <circle cx="100" cy="100" r="90" fill="#007ACC" />
    <circle cx="100" cy="100" r="85" fill="#1E1E1E" />
    
    <!-- Cat Face -->
    <circle cx="100" cy="100" r="50" fill="#FFFFFF" />
    
    <!-- Eyes -->
    <circle cx="80" cy="90" r="8" fill="#007ACC" />
    <circle cx="120" cy="90" r="8" fill="#007ACC" />
    <circle cx="80" cy="90" r="4" fill="#000000" />
    <circle cx="120" cy="90" r="4" fill="#000000" />
    
    <!-- Whiskers -->
    <line x1="60" y1="105" x2="85" y2="100" stroke="#000000" stroke-width="2" />
    <line x1="60" y1="115" x2="85" y2="110" stroke="#000000" stroke-width="2" />
    <line x1="140" y1="105" x2="115" y2="100" stroke="#000000" stroke-width="2" />
    <line x1="140" y1="115" x2="115" y2="110" stroke="#000000" stroke-width="2" />
    
    <!-- Ears -->
    <polygon points="75,60 65,35 90,50" fill="#FFFFFF" stroke="#000000" stroke-width="1" />
    <polygon points="125,60 135,35 110,50" fill="#FFFFFF" stroke="#000000" stroke-width="1" />
    
    <!-- Nose and Mouth -->
    <circle cx="100" cy="105" r="5" fill="#FF69B4" />
    <path d="M95,115 Q100,120 105,115" stroke="#000000" stroke-width="2" fill="none" />
    
    <!-- Code Brackets -->
    <text x="80" y="145" font-family="monospace" font-size="30" fill="#FFFFFF" font-weight="bold">{}</text>
    
    <!-- WhiskerCode Text (Outside of circle) -->
    <path id="curve" d="M30,170 A70,70 0 0,1 170,170" fill="transparent" />
    <text font-family="Arial" font-size="16" fill="#FFFFFF" font-weight="bold">
        <textPath href="#curve" startOffset="50%">
            <tspan text-anchor="middle">WhiskerCode</tspan>
        </textPath>
    </text>
</svg> 