<svg xmlns="http://www.w3.org/2000/svg" viewBox="0 0 200 200" width="200" height="200">
    <!-- Tech Tabby with headphones and digital elements -->
    <circle cx="100" cy="100" r="80" fill="#FF8C00" />
    <!-- Tabby stripes -->
    <path d="M70,60 Q100,80 130,60" fill="none" stroke="#8B4513" stroke-width="8" />
    <path d="M60,80 Q100,100 140,80" fill="none" stroke="#8B4513" stroke-width="8" />
    <path d="M50,100 Q100,120 150,100" fill="none" stroke="#8B4513" stroke-width="8" />
    <path d="M60,120 Q100,140 140,120" fill="none" stroke="#8B4513" stroke-width="8" />
    <!-- Face -->
    <circle cx="75" cy="90" r="10" fill="#FFF" />
    <circle cx="125" cy="90" r="10" fill="#FFF" />
    <circle cx="75" cy="90" r="5" fill="#000" />
    <circle cx="125" cy="90" r="5" fill="#000" />
    <!-- Whiskers -->
    <line x1="40" y1="110" x2="70" y2="105" stroke="#000" stroke-width="1" />
    <line x1="40" y1="120" x2="70" y2="115" stroke="#000" stroke-width="1" />
    <line x1="160" y1="110" x2="130" y2="105" stroke="#000" stroke-width="1" />
    <line x1="160" y1="120" x2="130" y2="115" stroke="#000" stroke-width="1" />
    <!-- Playful smile -->
    <path d="M90,115 Q100,125 110,115" fill="none" stroke="#000" stroke-width="2" />
    <!-- Ears -->
    <polygon points="60,40 45,20 75,30" fill="#FF8C00" stroke="#000" />
    <polygon points="140,40 155,20 125,30" fill="#FF8C00" stroke="#000" />
    <!-- Headphones -->
    <path d="M60,60 C30,60 30,100 30,100" fill="none" stroke="#000" stroke-width="3" />
    <path d="M140,60 C170,60 170,100 170,100" fill="none" stroke="#000" stroke-width="3" />
    <circle cx="30" cy="100" r="10" fill="#333" />
    <circle cx="170" cy="100" r="10" fill="#333" />
    <!-- Digital elements -->
    <rect x="80" y="140" width="40" height="20" rx="5" fill="#00BFFF" />
    <rect x="85" y="145" width="5" height="10" fill="#FFF" />
    <rect x="95" y="145" width="5" height="10" fill="#FFF" />
    <rect x="105" y="145" width="5" height="10" fill="#FFF" />
    <rect x="115" y="145" width="5" height="10" fill="#FFF" />
</svg> 