<svg xmlns="http://www.w3.org/2000/svg" width="800" height="800" viewBox="0 0 54 65" xml:space="preserve">
  <g fill="none" stroke="#6B6C6E" stroke-width="2" stroke-linecap="round" stroke-linejoin="round">
    <path d="M43.3 56.2c0-1-1.9-6.1 3.9-14.2S52 30.9 52 27.8"/>
    <path d="M31.3 34.6c7.2 6.8 12.1 17 12.1 23 0 9.7-9.3 5.4-21 5.4S1.1 67.2 1.1 57.6c0-6.1 4.9-16.2 12.1-23"/>
    <path d="M28.2 35c8.7-1.8 15.1-7.4 15.1-14.1 0-2.9-2-7.2-2.8-8.8.9-1.7 1.5-9.2.1-10.1-1.5-.8-8.3 6.4-8.3 6.4-3.2-1.4-6-2.2-10.1-2.2s-7.9.8-11.1 2.2c0 0-5.6-7.1-7.1-6.2-1.4.8-1.1 7.9-.3 9.8-.8 1.6-2.7 6-2.7 8.9C1 27.6 7.4 33.2 16.1 35"/>
  </g>
</svg>
